<?xml version="1.0" encoding="utf-8"?>
<!-- Generator: Adobe Illustrator 23.0.1, SVG Export Plug-In . SVG Version: 6.00 Build 0)  -->
<svg version="1.1" id="Слой_1" xmlns="http://www.w3.org/2000/svg" xmlns:xlink="http://www.w3.org/1999/xlink" x="0px" y="0px"
	 viewBox="0 0 21 21" style="enable-background:new 0 0 21 21;" xml:space="preserve">
<style type="text/css">
	.st0{fill-rule:evenodd;clip-rule:evenodd;fill:#C7B299;}
</style>
<path id="_04" class="st0" d="M10.5,0C4.7,0,0,4.7,0,10.5S4.7,21,10.5,21S21,16.3,21,10.5l0,0C21,4.7,16.3,0,10.5,0z M13.8,11
	l-4.5,4.5c-0.3,0.2-0.7,0.2-1-0.1c-0.2-0.3-0.2-0.6,0-0.9l4-4l-4-4C8,6.2,8,5.7,8.3,5.5s0.7-0.3,1,0l0,0l4.5,4.5
	C14.1,10.3,14.1,10.7,13.8,11z"/>
</svg>
