<?xml version="1.0" encoding="utf-8"?>
<!-- Generator: Adobe Illustrator 23.0.1, SVG Export Plug-In . SVG Version: 6.00 Build 0)  -->
<svg version="1.1" id="Слой_1" xmlns="http://www.w3.org/2000/svg" xmlns:xlink="http://www.w3.org/1999/xlink" x="0px" y="0px"
	 viewBox="0 0 22 22" style="enable-background:new 0 0 22 22;" xml:space="preserve">
<style type="text/css">
	.st0{fill-rule:evenodd;clip-rule:evenodd;fill:#D1D1D1;}
</style>
<path id="right" class="st0" d="M7.3,11.9l5,4.5c0.3,0.3,0.8,0.2,1-0.1c0.3-0.3,0.2-0.8-0.1-1l-4.5-4l4-4.5c0.3-0.3,0.2-0.8-0.1-1
	c-0.3-0.3-0.8-0.2-1,0.1l-4.5,5c-0.1,0.1-0.2,0.3-0.2,0.5C7.1,11.6,7.2,11.8,7.3,11.9z M11.3,22.2c7-0.4,12.2-7.3,9.8-14.5
	C20,4.1,17,1.4,13.4,0.5C4.5-1.5-2.9,7,0.6,15.7c1.7,4.2,6,6.7,10.5,6.5L11.3,22.2L11.3,22.2z M10.2,1.7c6.1-0.3,11.1,5.2,9.8,11.6
	c-0.7,3.2-3.1,5.9-6.3,6.9c-6.3,2-12.2-2.5-12.5-8.5C0.9,6.4,5,2,10.2,1.7L10.2,1.7z"/>
</svg>
