<?xml version="1.0" encoding="utf-8"?>
<!-- Generator: Adobe Illustrator 23.0.1, SVG Export Plug-In . SVG Version: 6.00 Build 0)  -->
<svg version="1.1" id="Слой_1" xmlns="http://www.w3.org/2000/svg" xmlns:xlink="http://www.w3.org/1999/xlink" x="0px" y="0px"
	 viewBox="0 0 24.6 24.6" style="enable-background:new 0 0 24.6 24.6;" xml:space="preserve">
<style type="text/css">
	.st0{fill-rule:evenodd;clip-rule:evenodd;fill:#C7B299;}
</style>
<path id="link" class="st0" d="M22.8,1.8c-2.4-2.4-6.3-2.4-8.7,0L9.3,6.5C11,6,12.7,6.2,14.3,6.9l2.5-2.4c1-0.9,2.5-0.9,3.5,0.1
	c0.9,0.9,0.9,2.4,0,3.4L17.1,11l-2,2c-0.9,1-2.5,1-3.4,0c0,0,0,0,0,0L9,15.6c0.6,0.6,1.3,1.1,2.1,1.4c2.1,0.8,4.4,0.5,6.2-0.9
	c0.2-0.1,0.4-0.3,0.5-0.5l3.2-3.2l1.9-1.9C25.2,8.1,25.2,4.2,22.8,1.8C22.8,1.8,22.8,1.8,22.8,1.8z M10.3,17.8l-2.4,2.4
	c-1,0.9-2.5,0.9-3.5-0.1c-0.9-0.9-0.9-2.4,0-3.4l5.1-5.1c1-0.9,2.5-0.9,3.5,0l2.6-2.6c-0.6-0.6-1.3-1.1-2.1-1.4
	c-2.2-0.9-4.7-0.4-6.4,1.1C7.1,8.8,7,8.9,6.9,8.9l-5.1,5.1c-2.4,2.4-2.4,6.3,0,8.7s6.3,2.4,8.7,0l0,0l4.6-4.7
	C12.8,18.7,12.3,18.6,10.3,17.8L10.3,17.8z"/>
</svg>
