<?xml version="1.0" encoding="utf-8"?>
<!-- Generator: Adobe Illustrator 23.0.1, SVG Export Plug-In . SVG Version: 6.00 Build 0)  -->
<svg version="1.1" id="Слой_1" xmlns="http://www.w3.org/2000/svg" xmlns:xlink="http://www.w3.org/1999/xlink" x="0px" y="0px"
	 viewBox="0 0 25.2 24.5" style="enable-background:new 0 0 25.2 24.5;" xml:space="preserve">
<style type="text/css">
	.st0{fill-rule:evenodd;clip-rule:evenodd;fill:#C7B299;}
</style>
<path id="lupa" class="st0" d="M10.5,3.9C9.8,3.8,9.2,4.4,9.1,5.1s0.5,1.3,1.2,1.4c0.1,0,0.2,0,0.2,0c1.6,0,3,0.9,3.7,2.3
	c0.3,0.6,1.1,0.9,1.8,0.6c0.6-0.3,0.9-1.1,0.6-1.7c0,0,0,0,0,0C15.5,5.3,13.1,3.9,10.5,3.9z M24.7,21.7l-4.4-4.3
	c1.3-1.8,2.1-4.1,2.1-6.4c0.1-6.2-4.9-11.2-11-11.3S0.1,4.6,0,10.7C0,16.9,4.9,22,11.1,22c2.5,0,5-0.8,6.9-2.3l4.3,4.3
	c0.6,0.6,1.7,0.6,2.3,0C25.3,23.4,25.3,22.4,24.7,21.7C24.7,21.7,24.7,21.7,24.7,21.7L24.7,21.7z M2.6,11c0.1-4.7,4-8.5,8.7-8.4
	c4.6,0.1,8.3,3.8,8.4,8.4c0,2.5-1.1,4.8-3,6.4c-3.6,3-9,2.6-12.1-1C3.4,14.9,2.7,13,2.6,11L2.6,11z"/>
</svg>
