<?xml version="1.0" encoding="utf-8"?>
<!-- Generator: Adobe Illustrator 23.0.1, SVG Export Plug-In . SVG Version: 6.00 Build 0)  -->
<svg version="1.1" id="Слой_1" xmlns="http://www.w3.org/2000/svg" xmlns:xlink="http://www.w3.org/1999/xlink" x="0px" y="0px"
	 viewBox="0 0 22 22" style="enable-background:new 0 0 22 22;" xml:space="preserve">
<style type="text/css">
	.st0{fill-rule:evenodd;clip-rule:evenodd;fill:#C7B299;}
</style>
<path id="right" class="st0" d="M14.3,10.6L9.4,5.9c-0.3-0.3-0.8-0.3-1,0c-0.3,0.3-0.3,0.8,0,1l4.3,4.2l-4.2,4.3
	c-0.3,0.3-0.3,0.8,0,1c0.3,0.3,0.8,0.3,1,0l4.7-4.8c0.1-0.1,0.2-0.3,0.2-0.5C14.5,10.9,14.4,10.7,14.3,10.6z M10.7,0.2
	C4.7,0.3-0.2,5.3-0.1,11.4C0,17.4,5,22.3,11,22.2c6.1-0.1,10.9-5.1,10.8-11.1C21.8,5,16.8,0.2,10.7,0.2C10.7,0.2,10.7,0.2,10.7,0.2
	L10.7,0.2z M11,20.7c-5.3,0.1-9.6-4.1-9.6-9.4c-0.1-5.3,4.1-9.6,9.4-9.6c5.3-0.1,9.6,4.1,9.6,9.4C20.4,16.4,16.2,20.7,11,20.7
	L11,20.7z"/>
</svg>
