<?xml version="1.0" encoding="utf-8"?>
<!-- Generator: Adobe Illustrator 23.0.1, SVG Export Plug-In . SVG Version: 6.00 Build 0)  -->
<svg version="1.1" id="Слой_1" xmlns="http://www.w3.org/2000/svg" xmlns:xlink="http://www.w3.org/1999/xlink" x="0px" y="0px"
	 viewBox="0 0 22 22" style="enable-background:new 0 0 22 22;" xml:space="preserve">
<style type="text/css">
	.st0{fill-rule:evenodd;clip-rule:evenodd;fill:#D1D1D1;}
</style>
<path id="right" class="st0" d="M14.1,10.6L9.3,5.9c-0.3-0.3-0.8-0.3-1,0C8,6.2,8,6.6,8.3,6.9l4.3,4.2l-4.2,4.3
	c-0.3,0.3-0.3,0.8,0,1c0.3,0.3,0.8,0.3,1,0l4.7-4.8c0.1-0.1,0.2-0.3,0.2-0.5C14.3,10.9,14.2,10.7,14.1,10.6z M10.6,0.2
	C3.6,0.3-1.9,6.9,0.1,14.3c1,3.6,3.8,6.4,7.4,7.4C16.3,24.2,24.1,16,21,7.2c-1.5-4.3-5.7-7-10.2-7L10.6,0.2L10.6,0.2z M10.8,20.7
	c-6.1,0-10.9-5.6-9.3-12C2.3,5.5,4.9,2.9,8.1,2c6.3-1.7,12.1,3,12.1,9.1C20.2,16.4,16,20.7,10.8,20.7L10.8,20.7z"/>
</svg>
