<?xml version="1.0" standalone="no"?>
<!DOCTYPE svg PUBLIC "-//W3C//DTD SVG 1.1//EN" "http://www.w3.org/Graphics/SVG/1.1/DTD/svg11.dtd">
<svg xmlns="http://www.w3.org/2000/svg">
<metadata>Copyright (C) 2018 by original authors @ fontello.com</metadata>
<defs>
<font id="fontello" horiz-adv-x="1000" >
<font-face font-family="fontello" font-weight="400" font-stretch="normal" units-per-em="1000" ascent="850" descent="-150" />
<missing-glyph horiz-adv-x="1000" />
<glyph glyph-name="left" unicode="&#xe800;" d="M521-150l-521 500 521 500 27-27-492-473 492-473z" horiz-adv-x="548" />

<glyph glyph-name="right" unicode="&#xe801;" d="M27-150l521 500-521 500-27-27 493-473-493-473z" horiz-adv-x="548" />

<glyph glyph-name="cart" unicode="&#xe802;" d="M625 725h-62c0 69-85 125-188 125s-187-56-187-125h-63a125 125 0 0 1-125-125v-625a125 125 0 0 1 125-125h500a125 125 0 0 1 125 125v625a125 125 0 0 1-125 125z m-250 63c69 0 125-20 125-63h-250c0 43 56 63 125 63z m312-813a63 63 0 0 0-62-63h-500a63 63 0 0 0-62 63v63h624v-63z m0 125h-624v500a63 63 0 0 0 62 63h63v-188h62v188h250v-188h63v188h62a63 63 0 0 0 62-63v-500z" horiz-adv-x="750" />

<glyph glyph-name="icon-search" unicode="&#xe803;" d="M990-95l-258 254a409 409 0 0 1 109 277 421 421 0 1 1-421-414 424 424 0 0 1 265 93l259-255a33 33 0 0 1 46 0 32 32 0 0 1 0 45z m-570 181a350 350 0 1 0 356 350 353 353 0 0 0-356-350z" horiz-adv-x="1000" />

<glyph glyph-name="logo" unicode="&#xe804;" d="M667 656h-191l96-167z m-214-14l-96-167h191z m333-167l-95 167-96-167h191z m-191-28l96-166 95 166h-191z m-238 0l96-166 95 166h-191z m-119-180h191l-96 166z m667 0l-95 166-95-166h190z m-333 583l-96-167h191z m238-778l95 167h-190z m-477 0l96 167h-191z m-214-14h190l-95 167z m905 0l-95 167-95-167h190z m-190-27l95-167 95 167h-190z m-239 0l96-167 95 167h-191z m-381-167l95 167h-190z m-214-14h190l-95 167z m476 0h191l-95 167z m239 0h190l-95 167z m333 167l-95-167h190z" horiz-adv-x="3277" />

<glyph glyph-name="icon-play" unicode="&#xe805;" d="M427 110a29 29 0 0 0-29 29v422a30 30 0 0 0 48 23l253-211a29 29 0 0 0 0-45l-253-211a29 29 0 0 0-19-7z m30 388v-296l178 148z m42-648a497 497 0 0 0-245 64 29 29 0 1 0 29 51 442 442 0 1 1-95 73 29 29 0 1 0-42-42 501 501 0 1 0 353-146z" horiz-adv-x="1000" />

<glyph glyph-name="icon" unicode="&#xe806;" d="M547 850l-547-295 547-295 547 295z m0-686l-445 241-102-55 547-295 547 295-101 55z m0-204l-445 240-102-55 547-295 547 295-101 55z" horiz-adv-x="1094" />

<glyph glyph-name="icon1" unicode="&#xe807;" d="M232 488a191 191 0 0 0 161 101h735v47a70 70 0 0 1-69 69h-303v41a104 104 0 0 1-104 104h-176a105 105 0 0 1-104-104v-41h-303a70 70 0 0 1-69-69v-623z m209 258a36 36 0 0 0 10 24 33 33 0 0 0 25 10h176a35 35 0 0 0 35-34v-41h-246v41z m715-834a121 121 0 0 0-100-62h-991a40 40 0 0 0-38 62l266 545a122 122 0 0 0 100 62h990a40 40 0 0 0 39-62z" horiz-adv-x="1428" />

<glyph glyph-name="icon2" unicode="&#xe808;" d="M1000 350a99 99 0 0 1-60 88 106 106 0 0 0-66 160 96 96 0 0 1-126 126 138 138 0 0 0-97-8 136 136 0 0 0-63 74 96 96 0 0 1-177 0 106 106 0 0 0-160-66 96 96 0 0 1-125-126 106 106 0 0 0-66-160 96 96 0 0 1 0-177 106 106 0 0 0 66-160 96 96 0 0 1 125-125 106 106 0 0 0 160-67 96 96 0 0 1 177 0 106 106 0 0 0 160 67 96 96 0 0 1 126 125 106 106 0 0 0 66 160 99 99 0 0 1 60 89z m-500-184a183 183 0 1 0 183 184 183 183 0 0 0-183-184z" horiz-adv-x="1000" />

<glyph glyph-name="icon3" unicode="&#xe809;" d="M991 501a33 33 0 0 1-48 0l-291-290-409-181-63 63 180 409 291 291a33 33 0 0 1-47 48l-300-300-304-691 691 304 300 300a34 34 0 0 1 0 47z m-424-231a34 34 0 0 1 47 0l280 281a33 33 0 0 1-47 47l-280-280a34 34 0 0 1 0-48z m-73 73a34 34 0 0 1 47 0l280 281a33 33 0 0 1-47 47l-280-280a34 34 0 0 1 0-48z m-74 74a33 33 0 0 1 48 0l280 280a33 33 0 0 1-47 47l-281-280a34 34 0 0 1 0-47z" horiz-adv-x="1000" />

<glyph glyph-name="lupa" unicode="&#xe80a;" d="M430 691a53 53 0 1 1 0-106 170 170 0 0 0 153-94 54 54 0 0 1 72-25 53 53 0 0 1 25 71 276 276 0 0 1-250 154z m578-727l-179 176a443 443 0 0 1 85 260 456 456 0 1 1-178-355l177-175a67 67 0 0 1 95 0 65 65 0 0 1 0 94z m-901 436a350 350 0 0 0 699 0 343 343 0 0 0-124-262 350 350 0 0 0-575 262z" horiz-adv-x="1028" />

<glyph glyph-name="link" unicode="&#xe80b;" d="M927 778a252 252 0 0 1-356 0l-191-192a288 288 0 0 0 199-15l100 100a99 99 0 0 0 140-141l-125-126-82-82a99 99 0 0 0-141 0l-107-107a246 246 0 0 1 84-55 253 253 0 0 1 250 36 190 190 0 0 1 21 19l129 129 79 79a251 251 0 0 1 0 355z m-511-651l-95-96a99 99 0 0 0-141 141l208 208a100 100 0 0 0 141 0l107 107a243 243 0 0 1-85 56 252 252 0 0 1-261-47 126 126 0 0 1-9-9l-208-208a251 251 0 0 1 355-355l188 190c-96-22-118-20-200 13z" horiz-adv-x="1000" />

<glyph glyph-name="01" unicode="&#xe80c;" d="M500 850a500 500 0 1 1 500-500 500 500 0 0 1-500 500z m157-524l-216-216a33 33 0 0 0-48 47l193 193-193 193a33 33 0 0 0 48 47l216-216a34 34 0 0 0 0-48z" horiz-adv-x="1000" />

<glyph glyph-name="coffe" unicode="&#xe80d;" d="M1046-122a28 28 0 0 0-28-28h-990a28 28 0 0 0 0 57h990a28 28 0 0 0 28-29z m-551 467a28 28 0 0 1 39 2 29 29 0 0 1-1 40c-48 45-38 138 4 190 56 71 68 197-4 265a28 28 0 0 1-40-1 29 29 0 0 1 2-40c43-41 42-133-2-188a231 231 0 0 1-48-136 172 172 0 0 1 50-132z m596 59v-54a141 141 0 0 0-140-142h-63a307 307 0 0 0-288-206h-154a309 309 0 0 0-306 311v282a28 28 0 0 0 28 28h180c37 57 35 140-6 178a29 29 0 0 0-1 40 28 28 0 0 0 40 1c72-68 59-194 3-265-41-52-51-145-3-190a29 29 0 0 0 1-40 28 28 0 0 0-40-2 172 172 0 0 0-49 132 237 237 0 0 0 20 89h-117v-253a252 252 0 0 1 250-254h154a252 252 0 0 1 250 254v253h-211a28 28 0 0 0 0 57h239a28 28 0 0 0 28-28v-49h45a141 141 0 0 0 140-142z m-56 0a84 84 0 0 1-84 85h-45v-224h45a85 85 0 0 1 84 85v54z" horiz-adv-x="1091" />

<glyph glyph-name="haert" unicode="&#xe80e;" d="M688 850c-10 0-20-1-29-1l-11-2c-5 0-11-1-17-2-4-1-9-2-13-3-5-1-9-2-14-4s-9-2-13-4a124 124 0 0 1-12-4 280 280 0 0 1-31-13 48 48 0 0 1-6-3c-5-3-10-6-15-9-3-2-6-3-8-5-5-3-10-6-15-10a49 49 0 0 0-4-3 312 312 0 0 1-500-249c0-283 182-539 487-685a30 30 0 0 1 26 0c305 146 487 402 487 685a313 313 0 0 1-312 312z m-188-934c-274 136-437 367-437 622a249 249 0 0 0 390 206 312 312 0 0 1-78-206 31 31 0 0 1 63 0 250 250 0 0 0 84 187c5 4 10 8 15 12l4 2c5 4 10 7 15 11 1 1 3 1 4 2 5 3 10 6 16 9l5 2c5 3 10 5 15 7 2 1 5 2 7 3 5 1 10 3 15 4 3 1 6 2 9 3 4 1 9 2 13 3 4 1 9 1 13 2 3 0 7 1 10 1 8 1 16 2 25 2a250 250 0 0 0 250-250c0-255-164-486-438-622z m188 809a31 31 0 1 1 0-62 125 125 0 0 0 125-125 31 31 0 0 1 62 0 188 188 0 0 1-187 187z" horiz-adv-x="1000" />

<glyph glyph-name="icon-play-1" unicode="&#xe80f;" d="M427 110a29 29 0 0 0-29 29v422a30 30 0 0 0 48 23l253-211a29 29 0 0 0 0-45l-253-211a29 29 0 0 0-19-7z m30 388v-296l178 148z m42-648a497 497 0 0 0-245 64 29 29 0 1 0 29 51 442 442 0 1 1-95 73 29 29 0 1 0-42-42 501 501 0 1 0 353-146z" horiz-adv-x="1000" />

<glyph glyph-name="icon5" unicode="&#xe810;" d="M453 163c129 0 235 128 235 285s-106 285-235 285a215 215 0 0 1-168-86 319 319 0 0 1-66-199c0-157 105-285 234-285z m0 507c95 0 172-99 172-222s-77-223-172-223-172 100-172 223 77 222 172 222z m197-476a31 31 0 1 1 0-63 194 194 0 0 0 194-194 25 25 0 0 0-25-25h-731a25 25 0 0 0-25 25 194 194 0 0 0 193 194 31 31 0 1 1 0 63 257 257 0 0 1-256-257 88 88 0 0 1 88-87h731a88 88 0 0 1 87 87 257 257 0 0 1-256 257z m-174 574a138 138 0 0 0 71 20c95 0 172-100 172-223a282 282 0 0 0-7-64 31 31 0 0 1 23-38 38 38 0 0 1 7-1 31 31 0 0 1 30 24 346 346 0 0 1 9 79c0 157-105 285-234 285a203 203 0 0 1-103-29 31 31 0 0 1 32-53z m274-449a31 31 0 1 1 0-63 191 191 0 0 0 188-195 24 24 0 0 0-3-11 31 31 0 0 1 16-41 32 32 0 0 1 42 16 88 88 0 0 1 7 36 253 253 0 0 1-250 258z" horiz-adv-x="1000" />

<glyph glyph-name="icon6" unicode="&#xe811;" d="M1189-73h-1151a39 39 0 0 1 0-77h1151a39 39 0 0 1 0 77z m-537 769v77h77a39 39 0 0 1 0 77h-230a39 39 0 0 1 0-77h76s0-80 0-77a616 616 0 0 1-575-615v-39a39 39 0 0 1 38-38h1151a39 39 0 0 1 38 38v39a616 616 0 0 1-575 615z m-575-615a537 537 0 1 0 1074 0h-1074z" horiz-adv-x="1227" />

<glyph glyph-name="left9" unicode="&#xe812;" d="M345 377l217 217a34 34 0 0 0 48-48l-194-193 194-194a34 34 0 0 0-48-47l-217 217a33 33 0 0 0-10 24 35 35 0 0 0 10 24z m155 473a500 500 0 1 0-500-500 500 500 0 0 0 500 500z m0-933a433 433 0 1 1-433 433 434 434 0 0 1 433-433z" horiz-adv-x="1000" />

<glyph glyph-name="link-1" unicode="&#xe813;" d="M927 778a252 252 0 0 1-356 0l-191-192a288 288 0 0 0 199-15l100 100a99 99 0 0 0 140-141l-125-126-82-82a99 99 0 0 0-141 0l-107-107a246 246 0 0 1 84-55 253 253 0 0 1 250 36 190 190 0 0 1 21 19l129 129 79 79a251 251 0 0 1 0 355z m-511-651l-95-96a99 99 0 0 0-141 141l208 208a100 100 0 0 0 141 0l107 107a243 243 0 0 1-85 56 252 252 0 0 1-261-47 126 126 0 0 1-9-9l-208-208a251 251 0 0 1 355-355l188 190c-96-22-118-20-200 13z" horiz-adv-x="1000" />

<glyph glyph-name="lupa-1" unicode="&#xe814;" d="M430 691a53 53 0 1 1 0-106 170 170 0 0 0 153-94 54 54 0 0 1 72-25 53 53 0 0 1 25 71 276 276 0 0 1-250 154z m578-727l-179 176a443 443 0 0 1 85 260 456 456 0 1 1-178-355l177-175a67 67 0 0 1 95 0 65 65 0 0 1 0 94z m-901 436a350 350 0 0 0 699 0 343 343 0 0 0-124-262 350 350 0 0 0-575 262z" horiz-adv-x="1028" />

<glyph glyph-name="messed" unicode="&#xe815;" d="M656 319h-312a31 31 0 1 1 0-63h312a31 31 0 1 1 0 63z m63 187h-438a31 31 0 1 1 0-62h438a31 31 0 1 1 0 62z m-219 344c-276 0-500-196-500-437a419 419 0 0 1 188-342v-221l219 133a574 574 0 0 1 93-8c276 0 500 196 500 438s-224 437-500 437z m0-812a502 502 0 0 0-106 11l-147-88 2 145c-112 67-186 180-186 307 0 207 195 375 437 375s437-168 437-375-195-375-437-375z" horiz-adv-x="1000" />

<glyph glyph-name="right0" unicode="&#xe816;" d="M655 377l-217 217a34 34 0 0 1-48-48l194-193-194-194a34 34 0 0 1 48-47l217 217a33 33 0 0 1 10 24 35 35 0 0 1-10 24z m-155 473a500 500 0 1 1 500-500 500 500 0 0 1-500 500z m0-933a433 433 0 1 0 433 433 434 434 0 0 0-433-433z" horiz-adv-x="1000" />

<glyph glyph-name="icon-1" unicode="&#xe817;" d="M547 850l-547-295 547-295 547 295z m0-686l-445 241-102-55 547-295 547 295-101 55z m0-204l-445 240-102-55 547-295 547 295-101 55z" horiz-adv-x="1094" />

<glyph glyph-name="icon1-1" unicode="&#xe818;" d="M232 488a191 191 0 0 0 161 101h735v47a70 70 0 0 1-69 69h-303v41a104 104 0 0 1-104 104h-176a105 105 0 0 1-104-104v-41h-303a70 70 0 0 1-69-69v-623z m209 258a36 36 0 0 0 10 24 33 33 0 0 0 25 10h176a35 35 0 0 0 35-34v-41h-246v41z m715-834a121 121 0 0 0-100-62h-991a40 40 0 0 0-38 62l266 545a122 122 0 0 0 100 62h990a40 40 0 0 0 39-62z" horiz-adv-x="1428" />

<glyph glyph-name="icon2-1" unicode="&#xe819;" d="M1000 350a99 99 0 0 1-60 88 106 106 0 0 0-66 160 96 96 0 0 1-126 126 138 138 0 0 0-97-8 136 136 0 0 0-63 74 96 96 0 0 1-177 0 106 106 0 0 0-160-66 96 96 0 0 1-125-126 106 106 0 0 0-66-160 96 96 0 0 1 0-177 106 106 0 0 0 66-160 96 96 0 0 1 125-125 106 106 0 0 0 160-67 96 96 0 0 1 177 0 106 106 0 0 0 160 67 96 96 0 0 1 126 125 106 106 0 0 0 66 160 99 99 0 0 1 60 89z m-500-184a183 183 0 1 0 183 184 183 183 0 0 0-183-184z" horiz-adv-x="1000" />

<glyph glyph-name="icon3-1" unicode="&#xe81a;" d="M991 501a33 33 0 0 1-48 0l-291-290-409-181-63 63 180 409 291 291a33 33 0 0 1-47 48l-300-300-304-691 691 304 300 300a34 34 0 0 1 0 47z m-424-231a34 34 0 0 1 47 0l280 281a33 33 0 0 1-47 47l-280-280a34 34 0 0 1 0-48z m-73 73a34 34 0 0 1 47 0l280 281a33 33 0 0 1-47 47l-280-280a34 34 0 0 1 0-48z m-74 74a33 33 0 0 1 48 0l280 280a33 33 0 0 1-47 47l-281-280a34 34 0 0 1 0-47z" horiz-adv-x="1000" />
</font>
</defs>
</svg>
